# xmcd CD database file
#
# Track frame offsets:
#	150
#	23269
#	47871
#	73463
#	89354
#	109289
#	132053
#	150458
#	174227
#	192918
#	212424
#	228560
#	246979
#	266818
#	280938
#	303075
#
# Disc length: 4272 seconds
#
# Revision: 0
# Processed by: cddbd v1.5.1PL2 Copyright (c) Steve Scherf et al.
# Submitted via: CDex 1.51
#
DISCID=db10ae10
DTITLE=Ｄｉｒ　ｅｎ　ｇｒｅｙ - Ｄｉｒ　ｅｎ　ｇｒｅｙ　後半
DYEAR=2005
DGENRE=Rock
TTITLE0=霧と繭
TTITLE1=Ｇａｒｄｅｎ
TTITLE2=秒「」針
TTITLE3=Ｓｃｈｗｅｉｎの椅子
TTITLE4=Ｍａｓｋ
TTITLE5=残　−Ｚａｎ−
TTITLE6=脈
TTITLE7=ａｎ　ｉｎｊｅｃｔｉｏｎ
TTITLE8=【ＫＲ】　Ｃｕｂｅ
TTITLE9=Ｂｅｒｒｙ
TTITLE10=羅殺国
TTITLE11=鬼眼　−ｋｉｇａｎ−
TTITLE12=ＺＯＭＢＯＩＤ
TTITLE13=Ｔｈｅ　Ｄｏｍｅｓｔｉｃ　Ｆｕｃｋｅｒ　Ｆａｍｉｌｙ
TTITLE14=ＦＩＬＴＨ
TTITLE15=ピンクキラー
EXTD=YEAR: 2005
EXTT0=
EXTT1=
EXTT2=
EXTT3=
EXTT4=
EXTT5=
EXTT6=
EXTT7=
EXTT8=
EXTT9=
EXTT10=
EXTT11=
EXTT12=
EXTT13=
EXTT14=
EXTT15=
PLAYORDER=
